<svg width="310" height="402" viewBox="0 0 310 402" fill="none" xmlns="http://www.w3.org/2000/svg">
<g clip-path="url(#clip0_0_333)">
<path fill-rule="evenodd" clip-rule="evenodd" d="M80 0.5C80.8284 0.5 81.5 1.17157 81.5 2C81.5 2.7797 80.9051 3.42045 80.1445 3.49313L80 3.5H26C13.6979 3.5 3.70171 13.3731 3.50301 25.6279L3.5 26V80C3.5 80.8284 2.82843 81.5 2 81.5C1.2203 81.5 0.579551 80.9051 0.506867 80.1445L0.5 80V26C0.5 12.0576 11.6895 0.728601 25.5783 0.503416L26 0.5H80Z" fill="url(#paint0_linear_0_333)"/>
<path fill-rule="evenodd" clip-rule="evenodd" d="M80 401.5C80.8284 401.5 81.5 400.828 81.5 400C81.5 399.22 80.9051 398.58 80.1445 398.507L80 398.5H26C13.6979 398.5 3.70171 388.627 3.50301 376.372L3.5 376V322C3.5 321.172 2.82843 320.5 2 320.5C1.2203 320.5 0.579551 321.095 0.506867 321.856L0.5 322V376C0.5 389.942 11.6895 401.271 25.5783 401.497L26 401.5H80Z" fill="url(#paint1_linear_0_333)"/>
<path fill-rule="evenodd" clip-rule="evenodd" d="M229.75 0.5C228.922 0.5 228.25 1.17157 228.25 2C228.25 2.7797 228.845 3.42045 229.606 3.49313L229.75 3.5H283.75C296.052 3.5 306.048 13.3731 306.247 25.6279L306.25 26V80C306.25 80.8284 306.922 81.5 307.75 81.5C308.53 81.5 309.17 80.9051 309.243 80.1445L309.25 80V26C309.25 12.0576 298.06 0.728601 284.172 0.503416L283.75 0.5H229.75Z" fill="url(#paint2_linear_0_333)"/>
<path fill-rule="evenodd" clip-rule="evenodd" d="M229.75 401.5C228.922 401.5 228.25 400.828 228.25 400C228.25 399.22 228.845 398.58 229.606 398.507L229.75 398.5H283.75C296.052 398.5 306.048 388.627 306.247 376.372L306.25 376V322C306.25 321.172 306.922 320.5 307.75 320.5C308.53 320.5 309.17 321.095 309.243 321.856L309.25 322V376C309.25 389.942 298.06 401.271 284.172 401.497L283.75 401.5H229.75Z" fill="url(#paint3_linear_0_333)"/>
</g>
<defs>
<linearGradient id="paint0_linear_0_333" x1="132.34" y1="29.3173" x2="27.9741" y2="-51.6827" gradientUnits="userSpaceOnUse">
<stop stop-color="#81FF81"/>
<stop offset="0.344682" stop-color="#FBFEF9"/>
<stop offset="0.47832" stop-color="#FF8BEC"/>
<stop offset="0.709198" stop-color="white"/>
<stop offset="1" stop-color="#3854FF"/>
</linearGradient>
<linearGradient id="paint1_linear_0_333" x1="132.34" y1="372.683" x2="27.9741" y2="453.683" gradientUnits="userSpaceOnUse">
<stop stop-color="#81FF81"/>
<stop offset="0.344682" stop-color="#FBFEF9"/>
<stop offset="0.47832" stop-color="#FF8BEC"/>
<stop offset="0.709198" stop-color="white"/>
<stop offset="1" stop-color="#3854FF"/>
</linearGradient>
<linearGradient id="paint2_linear_0_333" x1="177.41" y1="29.3173" x2="281.776" y2="-51.6827" gradientUnits="userSpaceOnUse">
<stop stop-color="#81FF81"/>
<stop offset="0.344682" stop-color="#FBFEF9"/>
<stop offset="0.47832" stop-color="#FF8BEC"/>
<stop offset="0.709198" stop-color="white"/>
<stop offset="1" stop-color="#3854FF"/>
</linearGradient>
<linearGradient id="paint3_linear_0_333" x1="177.41" y1="372.683" x2="281.776" y2="453.683" gradientUnits="userSpaceOnUse">
<stop stop-color="#81FF81"/>
<stop offset="0.344682" stop-color="#FBFEF9"/>
<stop offset="0.47832" stop-color="#FF8BEC"/>
<stop offset="0.709198" stop-color="white"/>
<stop offset="1" stop-color="#3854FF"/>
</linearGradient>
<clipPath id="clip0_0_333">
<rect width="310" height="402" fill="white"/>
</clipPath>
</defs>
</svg>
